<?xml version="1.0" encoding="UTF-8"?>
<svg width="169px" height="120px" viewBox="0 0 169 120" version="1.1" xmlns="http://www.w3.org/2000/svg" xmlns:xlink="http://www.w3.org/1999/xlink">
    <title>logoipsum-245</title>
    <g id="Page-1" stroke="none" stroke-width="1" fill="none" fill-rule="evenodd">
        <g id="logo-with-text" fill-rule="nonzero">
            <g id="logoipsum-245">
                <path d="M57.3149542,0 L121.475415,0 C123.684554,-7.10542736e-15 125.475415,1.790861 125.475415,4 C125.475415,4.79732425 125.237131,5.57645597 124.791151,6.23738521 L75.8297162,78.7967315 C74.9001615,80.1743032 73.3469049,81 71.6850458,81 L7.52458529,81 C5.31544629,81 3.52458529,79.209139 3.52458529,77 C3.52458529,76.2026758 3.76286859,75.423544 4.20884896,74.7626148 L53.1702838,2.20326849 C54.0998385,0.82569683 55.6530951,-1.77635684e-15 57.3149542,0 Z" id="Path" fill="#6366F1"></path>
                <path d="M55.7581868,90.8230257 L40.2275655,113.757141 C38.9888688,115.586328 39.4675559,118.07334 41.296743,119.312036 C41.9587991,119.76037 42.7400259,120 43.5396018,120 L111.495043,120 C113.153973,120 114.704888,119.177193 115.635079,117.803587 L164.772398,45.2428696 C166.0111,43.4136864 165.532421,40.9266736 163.703238,39.687971 C163.04118,39.2396324 162.259949,39 161.460369,39 L113.974765,39 C112.315839,39 110.764926,39.8228036 109.834734,41.1964045 L79.2027741,86.4301946 C78.2725826,87.8037956 76.7216697,88.6265992 75.0627436,88.6265992 L59.8982322,88.6265992 C58.2392967,88.6265992 56.6883763,89.449412 55.7581868,90.8230257 Z" id="Path" fill="#393B89"></path>
            </g>
        </g>
    </g>
</svg>