<?xml version="1.0" encoding="UTF-8"?>
<svg width="80px" height="32px" viewBox="0 0 80 32" version="1.1" xmlns="http://www.w3.org/2000/svg" xmlns:xlink="http://www.w3.org/1999/xlink">
    <title>logo</title>
    <defs>
        <linearGradient x1="71.4680219%" y1="0%" x2="71.4680219%" y2="100%" id="linearGradient-1">
            <stop stop-color="#B7B7B7" offset="0%"></stop>
            <stop stop-color="#323232" offset="100%"></stop>
        </linearGradient>
        <path d="M18.5147,-1.77635684e-15 C15.4686,-1.77635684e-15 12.5473,1.21005 10.3934,3.36396 L3.36396,10.3934 C1.21005,12.5473 0,15.4686 0,18.5147 C0,24.8579 5.14214,30 11.4853,30 C14.5314,30 17.4527,28.7899 19.6066,26.636 L24.4689,21.7737 C24.469,21.7738 24.4689,21.7736 24.4689,21.7737 L38.636,7.6066 C39.6647,6.57791 41.0599,6 42.5147,6 C44.9503,6 47.0152,7.58741 47.7311,9.78407 L52.2022,5.31296 C50.1625,2.11834 46.586,-1.77635684e-15 42.5147,-1.77635684e-15 C39.4686,-1.77635684e-15 36.5473,1.21005 34.3934,3.36396 L15.364,22.3934 C14.3353,23.4221 12.9401,24 11.4853,24 C8.45584,24 6,21.5442 6,18.5147 C6,17.0599 6.57791,15.6647 7.6066,14.636 L14.636,7.6066 C15.6647,6.57791 17.0599,6 18.5147,6 C20.9504,6 23.0152,7.58748 23.7311,9.78421 L28.2023,5.31307 C26.1626,2.1184 22.5861,-1.77635684e-15 18.5147,-1.77635684e-15 Z" id="path-2"></path>
        <filter x="-1.9%" y="-3.3%" width="107.7%" height="113.3%" filterUnits="objectBoundingBox" id="filter-3">
            <feOffset dx="1" dy="1" in="SourceAlpha" result="shadowOffsetOuter1"></feOffset>
            <feGaussianBlur stdDeviation="0.5" in="shadowOffsetOuter1" result="shadowBlurOuter1"></feGaussianBlur>
            <feColorMatrix values="0 0 0 0 0.639792733   0 0 0 0 0.639792733   0 0 0 0 0.639792733  0 0 0 0.5 0" type="matrix" in="shadowBlurOuter1"></feColorMatrix>
        </filter>
        <linearGradient x1="71.4680219%" y1="0%" x2="71.4680219%" y2="100%" id="linearGradient-4">
            <stop stop-color="#B7B7B7" offset="0%"></stop>
            <stop stop-color="#323232" offset="100%"></stop>
        </linearGradient>
        <path d="M39.364,22.3934 C38.3353,23.4221 36.9401,24 35.4853,24 C33.05,24 30.9853,22.413 30.2692,20.2167 L25.7982,24.6877 C27.838,27.8819 31.4143,30 35.4853,30 C38.5314,30 41.4527,28.7899 43.6066,26.636 L62.636,7.6066 C63.6647,6.57791 65.0599,6 66.5147,6 C69.5442,6 72,8.45584 72,11.4853 C72,12.9401 71.4221,14.3353 70.3934,15.364 L63.364,22.3934 C62.3353,23.4221 60.9401,24 59.4853,24 C57.0498,24 54.985,22.4127 54.269,20.2162 L49.798,24.6873 C51.8377,27.8818 55.4141,30 59.4853,30 C62.5314,30 65.4527,28.7899 67.6066,26.636 L74.636,19.6066 C76.7899,17.4527 78,14.5314 78,11.4853 C78,5.14214 72.8579,0 66.5147,0 C63.4686,0 60.5473,1.21005 58.3934,3.36396 L39.364,22.3934 Z" id="path-5"></path>
        <filter x="-1.9%" y="-3.3%" width="107.7%" height="113.3%" filterUnits="objectBoundingBox" id="filter-6">
            <feOffset dx="1" dy="1" in="SourceAlpha" result="shadowOffsetOuter1"></feOffset>
            <feGaussianBlur stdDeviation="0.5" in="shadowOffsetOuter1" result="shadowBlurOuter1"></feGaussianBlur>
            <feColorMatrix values="0 0 0 0 0.639792733   0 0 0 0 0.639792733   0 0 0 0 0.639792733  0 0 0 0.5 0" type="matrix" in="shadowBlurOuter1"></feColorMatrix>
        </filter>
    </defs>
    <g id="Page-1" stroke="none" stroke-width="1" fill="none" fill-rule="evenodd">
        <g id="logo" fill-rule="nonzero">
            <g id="Path">
                <use fill="black" fill-opacity="1" filter="url(#filter-3)" xlink:href="#path-2"></use>
                <use fill="url(#linearGradient-1)" xlink:href="#path-2"></use>
            </g>
            <g id="Path">
                <use fill="black" fill-opacity="1" filter="url(#filter-6)" xlink:href="#path-5"></use>
                <use fill="url(#linearGradient-4)" xlink:href="#path-5"></use>
            </g>
        </g>
    </g>
</svg>